<mxfile host="app.diagrams.net" modified="2024-04-25T06:32:00.529Z" agent="Mozilla/5.0 (Windows NT 10.0; Win64; x64) AppleWebKit/537.36 (KHTML, like Gecko) Chrome/124.0.0.0 Safari/537.36 Edg/124.0.0.0" version="24.3.0" etag="-PhHxZmwkvYvTRy5Xyz-" type="github">
  <diagram name="第 1 页" id="7nr-70Fcbms6bMq91jKB">
    <mxGraphModel>
      <root>
        <mxCell id="0" />
        <mxCell id="1" parent="0" />
      </root>
    </mxGraphModel>
  </diagram>
</mxfile>
